<svg width="368" height="287" viewBox="0 0 368 287" fill="none" xmlns="http://www.w3.org/2000/svg">
<path d="M323.762 284.128V150.649H347.788V257.051L337.11 261.437V262.2H368V284.128H323.762Z" fill="#FFFCF5"/>
<path d="M249.191 284.128L265.4 150.649H302.392L318.41 284.128H293.049L290.57 251.903H275.887L273.408 284.128H249.191ZM266.544 232.071H289.044L284.849 185.544V174.485H281.608V185.544L277.603 226.732L266.544 231.309V232.071Z" fill="#FFFCF5"/>
<path d="M175.574 284.128V150.649H203.223L216.953 213.956L218.86 230.737H222.101L220.004 213.956V150.649H244.03V284.128H216.571L202.842 220.821L200.745 204.041H197.503L199.6 220.821V284.128H175.574Z" fill="#FFFCF5"/>
<path d="M128.883 286.416C113.628 286.416 103.521 275.929 103.521 260.293V177.154C103.521 159.993 116.107 148.361 134.794 148.361C153.481 148.361 166.066 159.993 166.066 177.154V194.316H142.04V177.345C142.04 172.959 139.179 170.29 134.794 170.29C130.408 170.29 127.548 172.959 127.548 177.345V257.432C127.548 261.818 130.599 264.488 134.984 264.488C139.561 264.488 142.612 261.818 142.612 257.432V226.351H134.794V206.52H166.066V284.128H149.667V277.073L150.048 274.785H147.951L147.379 277.073C144.328 283.175 137.463 286.416 128.883 286.416Z" fill="#FFFCF5"/>
<path d="M70.4141 284.128V150.649H94.4403V284.128H70.4141Z" fill="#FFFCF5"/>
<path d="M31.0815 286.416C12.3945 286.416 0 274.785 0 257.432V237.601H24.0262V257.432C24.0262 261.818 26.8865 264.488 31.0815 264.488C35.4673 264.488 38.3276 261.818 38.3276 257.432V241.987C38.3276 226.16 0.381369 223.872 0.381369 193.172V177.154C0.381369 159.802 12.5852 148.361 31.0815 148.361C49.5779 148.361 61.9724 159.802 61.9724 177.154V194.888H37.9462V176.963C37.9462 172.959 35.2766 170.29 31.0815 170.29C27.0772 170.29 24.4076 172.768 24.4076 176.963V190.311C24.4076 206.329 62.3538 208.426 62.3538 239.127V257.432C62.3538 274.785 49.7686 286.416 31.0815 286.416Z" fill="#FFFCF5"/>
<path d="M331.928 138.055C313.241 138.055 300.656 126.424 300.656 109.071V28.7933C300.656 11.6317 313.241 0 331.928 0C350.616 0 363.201 11.6317 363.201 28.7933V109.071C363.201 126.424 350.616 138.055 331.928 138.055ZM331.928 116.127C336.314 116.127 339.174 113.457 339.174 109.071V28.984C339.174 24.5983 336.314 21.9287 331.928 21.9287C327.543 21.9287 324.682 24.5983 324.682 28.984V109.071C324.682 113.457 327.543 116.127 331.928 116.127Z" fill="#FFFCF5"/>
<path d="M267.543 135.767V2.28833H291.569V135.767H267.543Z" fill="#FFFCF5"/>
<path d="M195.879 135.767V2.28833H228.486C246.41 2.28833 258.233 13.348 258.233 29.7469V108.309C258.233 124.708 246.41 135.767 228.486 135.767H195.879ZM209.227 113.839H226.96C231.346 113.839 234.206 111.169 234.206 106.783V31.2724C234.206 26.8866 231.346 24.217 226.96 24.217H219.905V108.69L209.227 113.076V113.839Z" fill="#FFFCF5"/>
<path d="M154.902 138.056C136.215 138.056 123.82 126.424 123.82 109.072V2.28833H147.847V109.072C147.847 113.457 150.707 116.127 154.902 116.127C159.288 116.127 162.148 113.457 162.148 109.072V2.28833H186.174V109.072C186.174 126.424 173.589 138.056 154.902 138.056Z" fill="#FFFCF5"/>
<path d="M80.1336 135.767V24.217H66.4043V2.28833H117.889V24.217H104.16V135.767H80.1336Z" fill="#FFFCF5"/>
<path d="M31.0815 138.055C12.3945 138.055 0 126.424 0 109.071V89.2403H24.0262V109.071C24.0262 113.457 26.8865 116.127 31.0815 116.127C35.4673 116.127 38.3276 113.457 38.3276 109.071V93.626C38.3276 77.7992 0.381369 75.511 0.381369 44.8108V28.7933C0.381369 11.4411 12.5852 0 31.0815 0C49.5779 0 61.9724 11.4411 61.9724 28.7933V46.527H37.9462V28.6026C37.9462 24.5983 35.2766 21.9287 31.0815 21.9287C27.0772 21.9287 24.4076 24.4076 24.4076 28.6026V41.9506C24.4076 57.968 62.3538 60.0656 62.3538 90.7657V109.071C62.3538 126.424 49.7686 138.055 31.0815 138.055Z" fill="#FFFCF5"/>
</svg>
